<?xml version="1.0" encoding="utf-8"?>
<!-- Generator: Adobe Illustrator 28.0.0, SVG Export Plug-In . SVG Version: 6.00 Build 0)  -->
<svg version="1.1" id="Layer_1" xmlns="http://www.w3.org/2000/svg" xmlns:xlink="http://www.w3.org/1999/xlink" x="0px" y="0px"
	 viewBox="0 0 80 42.29" style="enable-background:new 0 0 80 42.29;" xml:space="preserve">
<style type="text/css">
	.st0{fill:#F0D188;}
</style>
<g>
	<path class="st0" d="M0.46,1.33c2.05,0,4.58-1.2,6.94-1.2c3.52,0,5.13,7.73,5.13,19.48c0,11.75-1.45,18.28-4.06,18.28
		c-2.3,0-3.52-0.6-4.77-0.6c-1.2,0-2.34,0.18-3.24,0.6C0.91,24.64,0.91,11.16,0.46,1.33z M6.35,21.58c0.42,0,0.81-1.74,0.81-4.67
		c0-4.07-0.39-5.99-0.81-5.99c-0.45,0-0.78,1.92-0.78,5.99C5.57,19.85,5.9,21.58,6.35,21.58z"/>
	<path class="st0" d="M13.32,1.33h10.82l-0.22,10.73c-1.09-1.38-2.84-2.1-4.1-2.1c-0.98,0-1.3,0.78-1.3,2.34
		c0,1.2,0.25,1.86,0.64,1.86c0.63,0,2.63-1.08,3.95-1.08v8.33c-1.5,0-3.39-0.84-4.05-0.84c-0.33,0-0.53,0.72-0.53,1.86
		c0,1.5,0.28,2.22,1.44,2.22c1.09,0,2.91-0.72,4.16-1.92l0.34,14.56H13.32C13.79,23.5,13.79,11.52,13.32,1.33z"/>
	<path class="st0" d="M27.72,1.33h8.05c0.31,10.19,2.34,22.17,2.81,35.96h-6.75c0.16-5.69,0.2-8.99,0.2-11.45
		c0-2.22-0.25-3.66-0.69-3.66c-0.44,0-0.69,1.44-0.69,3.66c0,2.46,0.06,5.75,0.2,11.45h-5.49C25.84,23.38,28.19,11.46,27.72,1.33z
		 M31.35,16.55c0.48,0,0.69-1.74,0.69-4.01c0-2.76-0.17-5.09-0.66-5.09c-0.5,0-0.69,2.34-0.69,5.09
		C30.69,14.81,30.84,16.55,31.35,16.55z"/>
	<path class="st0" d="M39.71,1.33h3.17c1.83,0,3.47,5.33,3.63,13.66c0.05,2.52,0.14,6.29,0.78,6.29c1.11,0-0.22-13.96-0.55-19.96
		h5.17c-0.47,10.19-0.47,22.17,0,35.96H45.9c-0.13-8.45,0.05-18.58-0.8-18.58c-0.98,0-0.66,10.43-0.06,18.58h-5.71
		C40.02,27.1,40.13,11.4,39.71,1.33z"/>
	<path class="st0" d="M53.04,1.33h3.17c1.83,0,3.47,5.33,3.63,13.66c0.05,2.52,0.14,6.29,0.78,6.29c1.11,0-0.22-13.96-0.55-19.96
		h5.17c-0.47,10.19-0.47,22.17,0,35.96h-6.02c-0.13-8.45,0.05-18.58-0.8-18.58c-0.98,0-0.66,10.43-0.06,18.58h-5.71
		C53.35,27.1,53.46,11.4,53.04,1.33z"/>
	<path class="st0" d="M68.34,1.33h8.05c0.31,10.19,2.34,22.17,2.81,35.96h-6.75c0.16-5.69,0.2-8.99,0.2-11.45
		c0-2.22-0.25-3.66-0.69-3.66c-0.44,0-0.69,1.44-0.69,3.66c0,2.46,0.06,5.75,0.2,11.45H66C66.47,23.38,68.81,11.46,68.34,1.33z
		 M71.97,16.55c0.48,0,0.69-1.74,0.69-4.01c0-2.76-0.17-5.09-0.66-5.09c-0.5,0-0.69,2.34-0.69,5.09
		C71.31,14.81,71.47,16.55,71.97,16.55z"/>
</g>
<g>
	<path class="st0" d="M4.15,40.54c0,0.37-0.01,0.63-0.04,0.78c-0.03,0.15-0.12,0.29-0.27,0.42c-0.15,0.13-0.36,0.22-0.62,0.29
		c-0.26,0.07-0.56,0.1-0.91,0.1c-0.33,0-0.62-0.03-0.88-0.1c-0.26-0.06-0.47-0.16-0.63-0.29c-0.16-0.13-0.25-0.27-0.28-0.42
		c-0.03-0.15-0.05-0.41-0.05-0.79v-0.62c0-0.37,0.01-0.63,0.04-0.78c0.03-0.15,0.12-0.29,0.27-0.42c0.15-0.13,0.36-0.22,0.62-0.29
		s0.56-0.1,0.91-0.1c0.33,0,0.62,0.03,0.88,0.1s0.47,0.16,0.63,0.29c0.16,0.13,0.25,0.27,0.28,0.42c0.03,0.15,0.05,0.41,0.05,0.79
		V40.54z M2.55,39.34c0-0.17-0.02-0.28-0.05-0.33c-0.03-0.05-0.1-0.07-0.2-0.07c-0.08,0-0.15,0.02-0.19,0.06s-0.07,0.15-0.07,0.34
		v1.7c0,0.21,0.01,0.34,0.04,0.39c0.03,0.05,0.1,0.07,0.2,0.07c0.11,0,0.18-0.03,0.21-0.09c0.03-0.06,0.05-0.19,0.05-0.41V39.34z"/>
	<path class="st0" d="M13.72,38.4v3.65h-1.59v-1.53h-0.48v1.53h-1.59V38.4h1.59v1.3h0.48v-1.3H13.72z"/>
	<path class="st0" d="M14.36,38.4h2.66v0.73h-1.06v0.69h1v0.69h-1v0.8h1.17v0.73h-2.76V38.4z"/>
	<path class="st0" d="M17.59,38.4h1.13c0.75,0,1.26,0.02,1.53,0.05c0.27,0.03,0.48,0.12,0.65,0.26c0.17,0.14,0.25,0.37,0.25,0.68
		c0,0.28-0.06,0.47-0.18,0.57s-0.35,0.16-0.7,0.18c0.32,0.05,0.53,0.11,0.64,0.19c0.11,0.08,0.18,0.15,0.2,0.22
		c0.03,0.07,0.04,0.25,0.04,0.54v0.96h-1.48v-1.21c0-0.2-0.03-0.32-0.08-0.36s-0.19-0.07-0.41-0.07v1.65h-1.59V38.4z M19.18,39.02
		v0.81c0.18,0,0.3-0.01,0.38-0.04s0.11-0.12,0.11-0.29v-0.2c0-0.12-0.03-0.19-0.1-0.23C19.49,39.04,19.37,39.02,19.18,39.02z"/>
	<path class="st0" d="M23.13,38.4h1.61c0.43,0,0.77,0.02,1,0.06s0.41,0.1,0.53,0.18c0.12,0.08,0.2,0.17,0.24,0.28
		c0.04,0.11,0.06,0.28,0.06,0.51v0.32c0,0.23-0.04,0.4-0.12,0.51c-0.08,0.11-0.23,0.19-0.44,0.25c-0.22,0.06-0.5,0.09-0.85,0.09
		h-0.43v1.47h-1.59V38.4z M24.72,39.02v0.93c0.05,0,0.08,0,0.12,0c0.15,0,0.25-0.02,0.3-0.06s0.09-0.13,0.09-0.27v-0.3
		c0-0.12-0.03-0.21-0.1-0.24C25.07,39.04,24.93,39.02,24.72,39.02z"/>
	<path class="st0" d="M29.59,38.4l0.91,3.65h-1.63l-0.09-0.66h-0.57l-0.1,0.66h-1.65l0.81-3.65H29.59z M28.74,40.74
		c-0.08-0.41-0.16-0.92-0.24-1.53c-0.16,0.7-0.26,1.21-0.31,1.53H28.74z"/>
	<path class="st0" d="M34.15,39.5h-1.48v-0.27c0-0.13-0.02-0.21-0.06-0.24c-0.04-0.03-0.1-0.05-0.19-0.05
		c-0.1,0-0.17,0.02-0.22,0.07c-0.05,0.05-0.07,0.12-0.07,0.21c0,0.12,0.03,0.21,0.08,0.27c0.05,0.06,0.2,0.14,0.45,0.22
		c0.71,0.25,1.16,0.46,1.34,0.62c0.18,0.16,0.28,0.42,0.28,0.78c0,0.26-0.05,0.45-0.15,0.57s-0.3,0.23-0.59,0.31
		s-0.63,0.13-1.02,0.13c-0.43,0-0.79-0.05-1.09-0.14s-0.5-0.22-0.59-0.37s-0.14-0.36-0.14-0.63v-0.24h1.48v0.44
		c0,0.14,0.02,0.22,0.06,0.26s0.12,0.06,0.22,0.06s0.18-0.02,0.24-0.07s0.08-0.12,0.08-0.22c0-0.21-0.05-0.36-0.15-0.42
		c-0.1-0.07-0.35-0.18-0.75-0.33c-0.4-0.16-0.66-0.27-0.79-0.34c-0.13-0.07-0.24-0.17-0.32-0.29s-0.13-0.28-0.13-0.48
		c0-0.28,0.06-0.48,0.18-0.61s0.31-0.23,0.58-0.3c0.27-0.07,0.59-0.11,0.97-0.11c0.41,0,0.77,0.04,1.06,0.12s0.48,0.18,0.58,0.3
		c0.09,0.12,0.14,0.33,0.14,0.62V39.5z"/>
	<path class="st0" d="M38.16,39.5h-1.48v-0.27c0-0.13-0.02-0.21-0.06-0.24c-0.04-0.03-0.1-0.05-0.19-0.05
		c-0.1,0-0.17,0.02-0.22,0.07c-0.05,0.05-0.07,0.12-0.07,0.21c0,0.12,0.03,0.21,0.08,0.27c0.05,0.06,0.2,0.14,0.45,0.22
		c0.71,0.25,1.16,0.46,1.34,0.62c0.18,0.16,0.28,0.42,0.28,0.78c0,0.26-0.05,0.45-0.15,0.57s-0.3,0.23-0.59,0.31
		c-0.29,0.08-0.63,0.13-1.02,0.13c-0.43,0-0.79-0.05-1.09-0.14s-0.5-0.22-0.59-0.37s-0.14-0.36-0.14-0.63v-0.24h1.48v0.44
		c0,0.14,0.02,0.22,0.06,0.26s0.12,0.06,0.22,0.06c0.11,0,0.18-0.02,0.24-0.07s0.08-0.12,0.08-0.22c0-0.21-0.05-0.36-0.15-0.42
		c-0.1-0.07-0.35-0.18-0.75-0.33c-0.4-0.16-0.66-0.27-0.79-0.34c-0.13-0.07-0.24-0.17-0.32-0.29s-0.13-0.28-0.13-0.48
		c0-0.28,0.06-0.48,0.18-0.61c0.12-0.13,0.31-0.23,0.58-0.3c0.27-0.07,0.59-0.11,0.97-0.11c0.41,0,0.77,0.04,1.06,0.12
		s0.48,0.18,0.58,0.3c0.09,0.12,0.14,0.33,0.14,0.62V39.5z"/>
	<path class="st0" d="M40.38,38.4v3.65h-1.59V38.4H40.38z"/>
	<path class="st0" d="M44.66,40.54c0,0.37-0.01,0.63-0.04,0.78c-0.03,0.15-0.12,0.29-0.27,0.42c-0.15,0.13-0.36,0.22-0.62,0.29
		c-0.26,0.07-0.56,0.1-0.91,0.1c-0.33,0-0.62-0.03-0.88-0.1c-0.26-0.06-0.47-0.16-0.63-0.29c-0.16-0.13-0.25-0.27-0.28-0.42
		c-0.03-0.15-0.05-0.41-0.05-0.79v-0.62c0-0.37,0.01-0.63,0.04-0.78c0.03-0.15,0.12-0.29,0.27-0.42c0.15-0.13,0.36-0.22,0.62-0.29
		s0.56-0.1,0.91-0.1c0.33,0,0.62,0.03,0.88,0.1s0.47,0.16,0.63,0.29c0.16,0.13,0.25,0.27,0.28,0.42c0.03,0.15,0.05,0.41,0.05,0.79
		V40.54z M43.07,39.34c0-0.17-0.02-0.28-0.05-0.33c-0.03-0.05-0.1-0.07-0.2-0.07c-0.08,0-0.15,0.02-0.19,0.06s-0.07,0.15-0.07,0.34
		v1.7c0,0.21,0.01,0.34,0.04,0.39s0.1,0.07,0.2,0.07c0.11,0,0.18-0.03,0.21-0.09s0.05-0.19,0.05-0.41V39.34z"/>
	<path class="st0" d="M48.82,38.4v3.65h-1.4l-0.83-1.66v1.66h-1.33V38.4h1.33l0.89,1.64V38.4H48.82z"/>
	<path class="st0" d="M50.83,38.4h2.7v0.73h-1.11v0.69h0.98v0.69h-0.98v1.53h-1.59V38.4z"/>
	<path class="st0" d="M57.55,40.54c0,0.37-0.01,0.63-0.04,0.78s-0.12,0.29-0.27,0.42c-0.15,0.13-0.36,0.22-0.62,0.29
		c-0.26,0.07-0.56,0.1-0.91,0.1c-0.33,0-0.62-0.03-0.88-0.1c-0.26-0.06-0.47-0.16-0.63-0.29c-0.16-0.13-0.25-0.27-0.28-0.42
		c-0.03-0.15-0.05-0.41-0.05-0.79v-0.62c0-0.37,0.01-0.63,0.04-0.78c0.03-0.15,0.12-0.29,0.27-0.42c0.15-0.13,0.36-0.22,0.62-0.29
		s0.56-0.1,0.91-0.1c0.33,0,0.62,0.03,0.88,0.1s0.47,0.16,0.63,0.29c0.16,0.13,0.25,0.27,0.28,0.42c0.03,0.15,0.05,0.41,0.05,0.79
		V40.54z M55.96,39.34c0-0.17-0.02-0.28-0.05-0.33c-0.03-0.05-0.1-0.07-0.2-0.07c-0.08,0-0.15,0.02-0.19,0.06s-0.07,0.15-0.07,0.34
		v1.7c0,0.21,0.01,0.34,0.04,0.39c0.03,0.05,0.1,0.07,0.2,0.07c0.11,0,0.18-0.03,0.21-0.09c0.03-0.06,0.05-0.19,0.05-0.41V39.34z"/>
	<path class="st0" d="M58.15,38.4h1.13c0.75,0,1.26,0.02,1.53,0.05c0.27,0.03,0.48,0.12,0.65,0.26c0.17,0.14,0.25,0.37,0.25,0.68
		c0,0.28-0.06,0.47-0.18,0.57c-0.12,0.1-0.35,0.16-0.7,0.18c0.32,0.05,0.53,0.11,0.64,0.19c0.11,0.08,0.18,0.15,0.2,0.22
		c0.03,0.07,0.04,0.25,0.04,0.54v0.96h-1.48v-1.21c0-0.2-0.03-0.32-0.08-0.36s-0.19-0.07-0.41-0.07v1.65h-1.59V38.4z M59.74,39.02
		v0.81c0.18,0,0.3-0.01,0.38-0.04c0.07-0.03,0.11-0.12,0.11-0.29v-0.2c0-0.12-0.03-0.19-0.1-0.23
		C60.05,39.04,59.93,39.02,59.74,39.02z"/>
	<path class="st0" d="M67.09,38.4l-1.16,2.33v1.32h-1.48v-1.32l-1.12-2.33h1.46c0.23,0.71,0.36,1.19,0.39,1.44
		c0.09-0.39,0.24-0.87,0.44-1.44H67.09z"/>
	<path class="st0" d="M71,40.54c0,0.37-0.01,0.63-0.04,0.78s-0.12,0.29-0.27,0.42c-0.15,0.13-0.36,0.22-0.62,0.29
		c-0.26,0.07-0.56,0.1-0.91,0.1c-0.33,0-0.62-0.03-0.88-0.1c-0.26-0.06-0.47-0.16-0.63-0.29c-0.16-0.13-0.25-0.27-0.28-0.42
		c-0.03-0.15-0.05-0.41-0.05-0.79v-0.62c0-0.37,0.01-0.63,0.04-0.78c0.03-0.15,0.12-0.29,0.27-0.42c0.15-0.13,0.36-0.22,0.62-0.29
		c0.26-0.07,0.56-0.1,0.91-0.1c0.33,0,0.62,0.03,0.88,0.1s0.47,0.16,0.63,0.29c0.16,0.13,0.25,0.27,0.28,0.42
		c0.03,0.15,0.05,0.41,0.05,0.79V40.54z M69.41,39.34c0-0.17-0.02-0.28-0.05-0.33c-0.03-0.05-0.1-0.07-0.2-0.07
		c-0.08,0-0.15,0.02-0.19,0.06c-0.04,0.04-0.07,0.15-0.07,0.34v1.7c0,0.21,0.01,0.34,0.04,0.39s0.1,0.07,0.2,0.07
		c0.11,0,0.18-0.03,0.21-0.09c0.03-0.06,0.05-0.19,0.05-0.41V39.34z"/>
	<path class="st0" d="M75.26,39.74h-1.59v-0.33c0-0.21-0.02-0.34-0.05-0.39c-0.03-0.05-0.1-0.08-0.22-0.08
		c-0.1,0-0.17,0.02-0.2,0.07c-0.04,0.05-0.05,0.16-0.05,0.35v1.75c0,0.16,0.02,0.27,0.05,0.32c0.04,0.05,0.11,0.08,0.21,0.08
		c0.12,0,0.2-0.03,0.24-0.09c0.04-0.06,0.06-0.17,0.06-0.34v-0.43h-0.32v-0.55h1.87v1.96h-1l-0.15-0.26
		c-0.11,0.11-0.25,0.2-0.41,0.25c-0.17,0.06-0.36,0.08-0.59,0.08c-0.27,0-0.52-0.04-0.75-0.12c-0.23-0.08-0.41-0.17-0.53-0.29
		s-0.2-0.23-0.23-0.36c-0.03-0.13-0.05-0.31-0.05-0.56v-1.08c0-0.35,0.03-0.6,0.09-0.76s0.24-0.3,0.54-0.43
		c0.3-0.13,0.69-0.2,1.16-0.2c0.47,0,0.85,0.06,1.16,0.17s0.51,0.25,0.6,0.41c0.09,0.16,0.14,0.38,0.14,0.68V39.74z"/>
	<path class="st0" d="M78.63,38.4l0.91,3.65h-1.63l-0.09-0.66h-0.57l-0.1,0.66h-1.65l0.81-3.65H78.63z M77.78,40.74
		c-0.08-0.41-0.16-0.92-0.24-1.53c-0.16,0.7-0.26,1.21-0.31,1.53H77.78z"/>
	<path class="st0" d="M8.19,38.4v3.65h-1.4l-0.83-1.66v1.66H4.63V38.4h1.33l0.89,1.64V38.4H8.19z"/>
</g>
</svg>
